<mxfile host="65bd71144e">
    <diagram id="Tx6cEz7J8W1s8EiZxRaG" name="Page-1">
        <mxGraphModel dx="758" dy="536" grid="1" gridSize="10" guides="1" tooltips="1" connect="1" arrows="1" fold="1" page="1" pageScale="1" pageWidth="850" pageHeight="1100" math="0" shadow="0">
            <root>
                <mxCell id="0"/>
                <mxCell id="1" parent="0"/>
                <mxCell id="2" value="Cliente" style="swimlane;fontStyle=0;childLayout=stackLayout;horizontal=1;startSize=26;fillColor=none;horizontalStack=0;resizeParent=1;resizeParentMax=0;resizeLast=0;collapsible=1;marginBottom=0;" vertex="1" parent="1">
                    <mxGeometry x="30" y="70.44" width="170" height="338" as="geometry"/>
                </mxCell>
                <mxCell id="3" value="_id: Objectid" style="text;strokeColor=none;fillColor=none;align=left;verticalAlign=top;spacingLeft=4;spacingRight=4;overflow=hidden;rotatable=0;points=[[0,0.5],[1,0.5]];portConstraint=eastwest;" vertex="1" parent="2">
                    <mxGeometry y="26" width="170" height="26" as="geometry"/>
                </mxCell>
                <mxCell id="4" value="nome: String" style="text;strokeColor=none;fillColor=none;align=left;verticalAlign=top;spacingLeft=4;spacingRight=4;overflow=hidden;rotatable=0;points=[[0,0.5],[1,0.5]];portConstraint=eastwest;" vertex="1" parent="2">
                    <mxGeometry y="52" width="170" height="26" as="geometry"/>
                </mxCell>
                <mxCell id="5" value="cpf: String (unique)" style="text;strokeColor=none;fillColor=none;align=left;verticalAlign=top;spacingLeft=4;spacingRight=4;overflow=hidden;rotatable=0;points=[[0,0.5],[1,0.5]];portConstraint=eastwest;" vertex="1" parent="2">
                    <mxGeometry y="78" width="170" height="26" as="geometry"/>
                </mxCell>
                <mxCell id="29" value="data_nascimento: DateTime?" style="text;strokeColor=none;fillColor=none;align=left;verticalAlign=top;spacingLeft=4;spacingRight=4;overflow=hidden;rotatable=0;points=[[0,0.5],[1,0.5]];portConstraint=eastwest;" vertex="1" parent="2">
                    <mxGeometry y="104" width="170" height="26" as="geometry"/>
                </mxCell>
                <mxCell id="21" value="logradouro: String" style="text;strokeColor=none;fillColor=none;align=left;verticalAlign=top;spacingLeft=4;spacingRight=4;overflow=hidden;rotatable=0;points=[[0,0.5],[1,0.5]];portConstraint=eastwest;" vertex="1" parent="2">
                    <mxGeometry y="130" width="170" height="26" as="geometry"/>
                </mxCell>
                <mxCell id="22" value="num_casa: String" style="text;strokeColor=none;fillColor=none;align=left;verticalAlign=top;spacingLeft=4;spacingRight=4;overflow=hidden;rotatable=0;points=[[0,0.5],[1,0.5]];portConstraint=eastwest;" vertex="1" parent="2">
                    <mxGeometry y="156" width="170" height="26" as="geometry"/>
                </mxCell>
                <mxCell id="23" value="bairro: String" style="text;strokeColor=none;fillColor=none;align=left;verticalAlign=top;spacingLeft=4;spacingRight=4;overflow=hidden;rotatable=0;points=[[0,0.5],[1,0.5]];portConstraint=eastwest;" vertex="1" parent="2">
                    <mxGeometry y="182" width="170" height="26" as="geometry"/>
                </mxCell>
                <mxCell id="24" value="complemento: String?" style="text;strokeColor=none;fillColor=none;align=left;verticalAlign=top;spacingLeft=4;spacingRight=4;overflow=hidden;rotatable=0;points=[[0,0.5],[1,0.5]];portConstraint=eastwest;" vertex="1" parent="2">
                    <mxGeometry y="208" width="170" height="26" as="geometry"/>
                </mxCell>
                <mxCell id="25" value="municipio: String" style="text;strokeColor=none;fillColor=none;align=left;verticalAlign=top;spacingLeft=4;spacingRight=4;overflow=hidden;rotatable=0;points=[[0,0.5],[1,0.5]];portConstraint=eastwest;" vertex="1" parent="2">
                    <mxGeometry y="234" width="170" height="26" as="geometry"/>
                </mxCell>
                <mxCell id="26" value="uf: StringÂ " style="text;strokeColor=none;fillColor=none;align=left;verticalAlign=top;spacingLeft=4;spacingRight=4;overflow=hidden;rotatable=0;points=[[0,0.5],[1,0.5]];portConstraint=eastwest;" vertex="1" parent="2">
                    <mxGeometry y="260" width="170" height="26" as="geometry"/>
                </mxCell>
                <mxCell id="27" value="telefone: String" style="text;strokeColor=none;fillColor=none;align=left;verticalAlign=top;spacingLeft=4;spacingRight=4;overflow=hidden;rotatable=0;points=[[0,0.5],[1,0.5]];portConstraint=eastwest;" vertex="1" parent="2">
                    <mxGeometry y="286" width="170" height="26" as="geometry"/>
                </mxCell>
                <mxCell id="28" value="email: String" style="text;strokeColor=none;fillColor=none;align=left;verticalAlign=top;spacingLeft=4;spacingRight=4;overflow=hidden;rotatable=0;points=[[0,0.5],[1,0.5]];portConstraint=eastwest;" vertex="1" parent="2">
                    <mxGeometry y="312" width="170" height="26" as="geometry"/>
                </mxCell>
                <mxCell id="6" value="Venda" style="swimlane;fontStyle=0;childLayout=stackLayout;horizontal=1;startSize=26;fillColor=none;horizontalStack=0;resizeParent=1;resizeParentMax=0;resizeLast=0;collapsible=1;marginBottom=0;" vertex="1" parent="1">
                    <mxGeometry x="360" y="70.44" width="140" height="130" as="geometry"/>
                </mxCell>
                <mxCell id="7" value="_id: Objectid" style="text;strokeColor=none;fillColor=none;align=left;verticalAlign=top;spacingLeft=4;spacingRight=4;overflow=hidden;rotatable=0;points=[[0,0.5],[1,0.5]];portConstraint=eastwest;" vertex="1" parent="6">
                    <mxGeometry y="26" width="140" height="26" as="geometry"/>
                </mxCell>
                <mxCell id="8" value="num_venda: int" style="text;strokeColor=none;fillColor=none;align=left;verticalAlign=top;spacingLeft=4;spacingRight=4;overflow=hidden;rotatable=0;points=[[0,0.5],[1,0.5]];portConstraint=eastwest;" vertex="1" parent="6">
                    <mxGeometry y="52" width="140" height="26" as="geometry"/>
                </mxCell>
                <mxCell id="9" value="data_venda: DateTime" style="text;strokeColor=none;fillColor=none;align=left;verticalAlign=top;spacingLeft=4;spacingRight=4;overflow=hidden;rotatable=0;points=[[0,0.5],[1,0.5]];portConstraint=eastwest;" vertex="1" parent="6">
                    <mxGeometry y="78" width="140" height="26" as="geometry"/>
                </mxCell>
                <mxCell id="70" value="cliente: Cliente" style="text;strokeColor=none;fillColor=none;align=left;verticalAlign=top;spacingLeft=4;spacingRight=4;overflow=hidden;rotatable=0;points=[[0,0.5],[1,0.5]];portConstraint=eastwest;" vertex="1" parent="6">
                    <mxGeometry y="104" width="140" height="26" as="geometry"/>
                </mxCell>
                <mxCell id="10" value="Produto" style="swimlane;fontStyle=0;childLayout=stackLayout;horizontal=1;startSize=26;fillColor=none;horizontalStack=0;resizeParent=1;resizeParentMax=0;resizeLast=0;collapsible=1;marginBottom=0;" vertex="1" parent="1">
                    <mxGeometry x="610" y="252.44" width="150" height="182" as="geometry"/>
                </mxCell>
                <mxCell id="11" value="_id: Objectid" style="text;strokeColor=none;fillColor=none;align=left;verticalAlign=top;spacingLeft=4;spacingRight=4;overflow=hidden;rotatable=0;points=[[0,0.5],[1,0.5]];portConstraint=eastwest;" vertex="1" parent="10">
                    <mxGeometry y="26" width="150" height="26" as="geometry"/>
                </mxCell>
                <mxCell id="12" value="descricao: String" style="text;strokeColor=none;fillColor=none;align=left;verticalAlign=top;spacingLeft=4;spacingRight=4;overflow=hidden;rotatable=0;points=[[0,0.5],[1,0.5]];portConstraint=eastwest;" vertex="1" parent="10">
                    <mxGeometry y="52" width="150" height="26" as="geometry"/>
                </mxCell>
                <mxCell id="13" value="unidade_medida: String" style="text;strokeColor=none;fillColor=none;align=left;verticalAlign=top;spacingLeft=4;spacingRight=4;overflow=hidden;rotatable=0;points=[[0,0.5],[1,0.5]];portConstraint=eastwest;" vertex="1" parent="10">
                    <mxGeometry y="78" width="150" height="26" as="geometry"/>
                </mxCell>
                <mxCell id="30" value="quantidade: Double" style="text;strokeColor=none;fillColor=none;align=left;verticalAlign=top;spacingLeft=4;spacingRight=4;overflow=hidden;rotatable=0;points=[[0,0.5],[1,0.5]];portConstraint=eastwest;" vertex="1" parent="10">
                    <mxGeometry y="104" width="150" height="26" as="geometry"/>
                </mxCell>
                <mxCell id="31" value="valor_unitario: Double" style="text;strokeColor=none;fillColor=none;align=left;verticalAlign=top;spacingLeft=4;spacingRight=4;overflow=hidden;rotatable=0;points=[[0,0.5],[1,0.5]];portConstraint=eastwest;" vertex="1" parent="10">
                    <mxGeometry y="130" width="150" height="26" as="geometry"/>
                </mxCell>
                <mxCell id="86" value="fornecedor: [Fornecedor]" style="text;strokeColor=none;fillColor=none;align=left;verticalAlign=top;spacingLeft=4;spacingRight=4;overflow=hidden;rotatable=0;points=[[0,0.5],[1,0.5]];portConstraint=eastwest;" vertex="1" parent="10">
                    <mxGeometry y="156" width="150" height="26" as="geometry"/>
                </mxCell>
                <mxCell id="14" value="Fornecedor" style="swimlane;fontStyle=0;childLayout=stackLayout;horizontal=1;startSize=26;fillColor=none;horizontalStack=0;resizeParent=1;resizeParentMax=0;resizeLast=0;collapsible=1;marginBottom=0;" vertex="1" parent="1">
                    <mxGeometry x="360" y="252.44" width="140" height="338" as="geometry"/>
                </mxCell>
                <mxCell id="15" value="_id: Objectid" style="text;strokeColor=none;fillColor=none;align=left;verticalAlign=top;spacingLeft=4;spacingRight=4;overflow=hidden;rotatable=0;points=[[0,0.5],[1,0.5]];portConstraint=eastwest;" vertex="1" parent="14">
                    <mxGeometry y="26" width="140" height="26" as="geometry"/>
                </mxCell>
                <mxCell id="16" value="razao_social: String" style="text;strokeColor=none;fillColor=none;align=left;verticalAlign=top;spacingLeft=4;spacingRight=4;overflow=hidden;rotatable=0;points=[[0,0.5],[1,0.5]];portConstraint=eastwest;" vertex="1" parent="14">
                    <mxGeometry y="52" width="140" height="26" as="geometry"/>
                </mxCell>
                <mxCell id="17" value="nome_fantasia: String" style="text;strokeColor=none;fillColor=none;align=left;verticalAlign=top;spacingLeft=4;spacingRight=4;overflow=hidden;rotatable=0;points=[[0,0.5],[1,0.5]];portConstraint=eastwest;" vertex="1" parent="14">
                    <mxGeometry y="78" width="140" height="26" as="geometry"/>
                </mxCell>
                <mxCell id="33" value="cnpj: String (unique)" style="text;strokeColor=none;fillColor=none;align=left;verticalAlign=top;spacingLeft=4;spacingRight=4;overflow=hidden;rotatable=0;points=[[0,0.5],[1,0.5]];portConstraint=eastwest;" vertex="1" parent="14">
                    <mxGeometry y="104" width="140" height="26" as="geometry"/>
                </mxCell>
                <mxCell id="34" value="logradouro: String" style="text;strokeColor=none;fillColor=none;align=left;verticalAlign=top;spacingLeft=4;spacingRight=4;overflow=hidden;rotatable=0;points=[[0,0.5],[1,0.5]];portConstraint=eastwest;" vertex="1" parent="14">
                    <mxGeometry y="130" width="140" height="26" as="geometry"/>
                </mxCell>
                <mxCell id="57" value="num_casa: String" style="text;strokeColor=none;fillColor=none;align=left;verticalAlign=top;spacingLeft=4;spacingRight=4;overflow=hidden;rotatable=0;points=[[0,0.5],[1,0.5]];portConstraint=eastwest;" vertex="1" parent="14">
                    <mxGeometry y="156" width="140" height="26" as="geometry"/>
                </mxCell>
                <mxCell id="53" value="bairro: String" style="text;strokeColor=none;fillColor=none;align=left;verticalAlign=top;spacingLeft=4;spacingRight=4;overflow=hidden;rotatable=0;points=[[0,0.5],[1,0.5]];portConstraint=eastwest;" vertex="1" parent="14">
                    <mxGeometry y="182" width="140" height="26" as="geometry"/>
                </mxCell>
                <mxCell id="54" value="complemento: String?" style="text;strokeColor=none;fillColor=none;align=left;verticalAlign=top;spacingLeft=4;spacingRight=4;overflow=hidden;rotatable=0;points=[[0,0.5],[1,0.5]];portConstraint=eastwest;" vertex="1" parent="14">
                    <mxGeometry y="208" width="140" height="26" as="geometry"/>
                </mxCell>
                <mxCell id="59" value="municipio: String" style="text;strokeColor=none;fillColor=none;align=left;verticalAlign=top;spacingLeft=4;spacingRight=4;overflow=hidden;rotatable=0;points=[[0,0.5],[1,0.5]];portConstraint=eastwest;" vertex="1" parent="14">
                    <mxGeometry y="234" width="140" height="26" as="geometry"/>
                </mxCell>
                <mxCell id="55" value="uf: StringÂ " style="text;strokeColor=none;fillColor=none;align=left;verticalAlign=top;spacingLeft=4;spacingRight=4;overflow=hidden;rotatable=0;points=[[0,0.5],[1,0.5]];portConstraint=eastwest;" vertex="1" parent="14">
                    <mxGeometry y="260" width="140" height="26" as="geometry"/>
                </mxCell>
                <mxCell id="56" value="telefone: String" style="text;strokeColor=none;fillColor=none;align=left;verticalAlign=top;spacingLeft=4;spacingRight=4;overflow=hidden;rotatable=0;points=[[0,0.5],[1,0.5]];portConstraint=eastwest;" vertex="1" parent="14">
                    <mxGeometry y="286" width="140" height="26" as="geometry"/>
                </mxCell>
                <mxCell id="58" value="email: String" style="text;strokeColor=none;fillColor=none;align=left;verticalAlign=top;spacingLeft=4;spacingRight=4;overflow=hidden;rotatable=0;points=[[0,0.5],[1,0.5]];portConstraint=eastwest;" vertex="1" parent="14">
                    <mxGeometry y="312" width="140" height="26" as="geometry"/>
                </mxCell>
                <mxCell id="60" value="ItemVenda" style="swimlane;fontStyle=0;childLayout=stackLayout;horizontal=1;startSize=26;fillColor=none;horizontalStack=0;resizeParent=1;resizeParentMax=0;resizeLast=0;collapsible=1;marginBottom=0;" vertex="1" parent="1">
                    <mxGeometry x="610" y="70.44" width="140" height="130" as="geometry"/>
                </mxCell>
                <mxCell id="61" value="_id: Objectid" style="text;strokeColor=none;fillColor=none;align=left;verticalAlign=top;spacingLeft=4;spacingRight=4;overflow=hidden;rotatable=0;points=[[0,0.5],[1,0.5]];portConstraint=eastwest;" vertex="1" parent="60">
                    <mxGeometry y="26" width="140" height="26" as="geometry"/>
                </mxCell>
                <mxCell id="62" value="num_item: int" style="text;strokeColor=none;fillColor=none;align=left;verticalAlign=top;spacingLeft=4;spacingRight=4;overflow=hidden;rotatable=0;points=[[0,0.5],[1,0.5]];portConstraint=eastwest;" vertex="1" parent="60">
                    <mxGeometry y="52" width="140" height="26" as="geometry"/>
                </mxCell>
                <mxCell id="63" value="produto: ???" style="text;strokeColor=none;fillColor=none;align=left;verticalAlign=top;spacingLeft=4;spacingRight=4;overflow=hidden;rotatable=0;points=[[0,0.5],[1,0.5]];portConstraint=eastwest;" vertex="1" parent="60">
                    <mxGeometry y="78" width="140" height="26" as="geometry"/>
                </mxCell>
                <mxCell id="65" value="Quantidade: Double" style="text;strokeColor=none;fillColor=none;align=left;verticalAlign=top;spacingLeft=4;spacingRight=4;overflow=hidden;rotatable=0;points=[[0,0.5],[1,0.5]];portConstraint=eastwest;" vertex="1" parent="60">
                    <mxGeometry y="104" width="140" height="26" as="geometry"/>
                </mxCell>
                <mxCell id="71" value="" style="endArrow=diamondThin;endFill=1;endSize=24;html=1;exitX=1.005;exitY=0.112;exitDx=0;exitDy=0;exitPerimeter=0;entryX=0.001;entryY=0.112;entryDx=0;entryDy=0;entryPerimeter=0;" edge="1" parent="1" source="6" target="60">
                    <mxGeometry width="160" relative="1" as="geometry">
                        <mxPoint x="400" y="30.44" as="sourcePoint"/>
                        <mxPoint x="560" y="30.44" as="targetPoint"/>
                    </mxGeometry>
                </mxCell>
                <mxCell id="77" value="0..*" style="edgeLabel;html=1;align=center;verticalAlign=middle;resizable=0;points=[];" vertex="1" connectable="0" parent="71">
                    <mxGeometry x="0.4248" relative="1" as="geometry">
                        <mxPoint x="1" y="-15" as="offset"/>
                    </mxGeometry>
                </mxCell>
                <mxCell id="81" value="1" style="edgeLabel;html=1;align=center;verticalAlign=middle;resizable=0;points=[];" vertex="1" connectable="0" parent="71">
                    <mxGeometry x="-0.8087" relative="1" as="geometry">
                        <mxPoint y="-15" as="offset"/>
                    </mxGeometry>
                </mxCell>
                <mxCell id="73" value="" style="endArrow=diamondThin;endFill=0;endSize=24;html=1;exitX=1.014;exitY=0.05;exitDx=0;exitDy=0;exitPerimeter=0;entryX=0.009;entryY=0.138;entryDx=0;entryDy=0;entryPerimeter=0;" edge="1" parent="1" source="2" target="6">
                    <mxGeometry width="160" relative="1" as="geometry">
                        <mxPoint x="270" y="290.44" as="sourcePoint"/>
                        <mxPoint x="430" y="290.44" as="targetPoint"/>
                    </mxGeometry>
                </mxCell>
                <mxCell id="75" value="0..*" style="edgeLabel;html=1;align=center;verticalAlign=middle;resizable=0;points=[];" vertex="1" connectable="0" parent="73">
                    <mxGeometry x="0.5684" y="4" relative="1" as="geometry">
                        <mxPoint y="-14" as="offset"/>
                    </mxGeometry>
                </mxCell>
                <mxCell id="76" value="1" style="edgeLabel;html=1;align=center;verticalAlign=middle;resizable=0;points=[];" vertex="1" connectable="0" parent="73">
                    <mxGeometry x="-0.7619" y="-1" relative="1" as="geometry">
                        <mxPoint x="-11" y="-18" as="offset"/>
                    </mxGeometry>
                </mxCell>
                <mxCell id="78" value="" style="endArrow=diamondThin;endFill=0;endSize=24;html=1;exitX=1.017;exitY=0.083;exitDx=0;exitDy=0;exitPerimeter=0;entryX=0.999;entryY=0.129;entryDx=0;entryDy=0;entryPerimeter=0;" edge="1" parent="1" source="10" target="60">
                    <mxGeometry width="160" relative="1" as="geometry">
                        <mxPoint x="530" y="170.44" as="sourcePoint"/>
                        <mxPoint x="690" y="170.44" as="targetPoint"/>
                        <Array as="points">
                            <mxPoint x="790" y="265.44"/>
                            <mxPoint x="790" y="87.44"/>
                        </Array>
                    </mxGeometry>
                </mxCell>
                <mxCell id="79" value="1" style="edgeLabel;html=1;align=center;verticalAlign=middle;resizable=0;points=[];" vertex="1" connectable="0" parent="78">
                    <mxGeometry x="-0.7733" y="-2" relative="1" as="geometry">
                        <mxPoint x="-11" y="-17" as="offset"/>
                    </mxGeometry>
                </mxCell>
                <mxCell id="80" value="0..*" style="edgeLabel;html=1;align=center;verticalAlign=middle;resizable=0;points=[];" vertex="1" connectable="0" parent="78">
                    <mxGeometry x="0.3226" y="-3" relative="1" as="geometry">
                        <mxPoint x="-23" y="-23" as="offset"/>
                    </mxGeometry>
                </mxCell>
                <mxCell id="82" value="" style="endArrow=block;startArrow=block;endFill=1;startFill=1;html=1;exitX=1.022;exitY=0.054;exitDx=0;exitDy=0;exitPerimeter=0;entryX=0;entryY=0.1;entryDx=0;entryDy=0;entryPerimeter=0;" edge="1" parent="1" source="14" target="10">
                    <mxGeometry width="160" relative="1" as="geometry">
                        <mxPoint x="310" y="320" as="sourcePoint"/>
                        <mxPoint x="470" y="320" as="targetPoint"/>
                    </mxGeometry>
                </mxCell>
                <mxCell id="83" value="0..*" style="edgeLabel;html=1;align=center;verticalAlign=middle;resizable=0;points=[];" vertex="1" connectable="0" parent="82">
                    <mxGeometry x="0.5884" y="-1" relative="1" as="geometry">
                        <mxPoint y="-12" as="offset"/>
                    </mxGeometry>
                </mxCell>
                <mxCell id="84" value="0..*" style="edgeLabel;html=1;align=center;verticalAlign=middle;resizable=0;points=[];" vertex="1" connectable="0" parent="82">
                    <mxGeometry x="-0.6607" y="-1" relative="1" as="geometry">
                        <mxPoint y="-12" as="offset"/>
                    </mxGeometry>
                </mxCell>
            </root>
        </mxGraphModel>
    </diagram>
</mxfile>